<svg width="22" height="21" viewBox="0 0 22 21" fill="none" xmlns="http://www.w3.org/2000/svg">
<g clip-path="url(#clip0_19_21464)">
<path d="M17.4165 2.79103H16.4998V1.10547H14.6665V2.79103H7.33318V1.10547H5.49985V2.79103H4.58318C3.57485 2.79103 2.74985 3.54953 2.74985 4.47658V16.2755C2.74985 17.2025 3.57485 17.961 4.58318 17.961H17.4165C18.4248 17.961 19.2498 17.2025 19.2498 16.2755V4.47658C19.2498 3.54953 18.4248 2.79103 17.4165 2.79103ZM17.4165 16.2755H4.58318V7.8477H17.4165V16.2755ZM4.58318 6.16214V4.47658H17.4165V6.16214H4.58318ZM9.67985 14.9776L15.1157 9.97993L14.144 9.08658L9.67985 13.1909L7.74568 11.4127L6.77401 12.306L9.67985 14.9776Z" fill="#515151"/>
</g>
<defs>
<clipPath id="clip0_19_21464">
<rect width="22" height="20.2267" fill="white" transform="translate(0 0.263672)"/>
</clipPath>
</defs>
</svg>
