<svg width="22" height="21" viewBox="0 0 22 21" fill="none" xmlns="http://www.w3.org/2000/svg">
<g clip-path="url(#clip0_19_21447)">
<path d="M15.2807 11.5654C16.5365 12.3492 17.4165 13.4111 17.4165 14.827V17.3553H21.0832V14.827C21.0832 12.9897 17.8107 11.9025 15.2807 11.5654Z" fill="#515151"/>
<path d="M13.75 10.6133C15.7758 10.6133 17.4166 9.10475 17.4166 7.24221C17.4166 5.37967 15.7758 3.87109 13.75 3.87109C13.3191 3.87109 12.9158 3.95537 12.5308 4.07336C13.2916 4.94142 13.75 6.04546 13.75 7.24221C13.75 8.43896 13.2916 9.543 12.5308 10.4111C12.9158 10.529 13.3191 10.6133 13.75 10.6133Z" fill="#515151"/>
<path d="M8.2501 10.6133C10.2759 10.6133 11.9168 9.10475 11.9168 7.24221C11.9168 5.37967 10.2759 3.87109 8.2501 3.87109C6.22427 3.87109 4.58344 5.37967 4.58344 7.24221C4.58344 9.10475 6.22427 10.6133 8.2501 10.6133ZM8.2501 5.55665C9.25844 5.55665 10.0834 6.31515 10.0834 7.24221C10.0834 8.16927 9.25844 8.92777 8.2501 8.92777C7.24177 8.92777 6.41677 8.16927 6.41677 7.24221C6.41677 6.31515 7.24177 5.55665 8.2501 5.55665Z" fill="#515151"/>
<path d="M8.24996 11.4561C5.80246 11.4561 0.916626 12.5854 0.916626 14.8272V17.3555H15.5833V14.8272C15.5833 12.5854 10.6975 11.4561 8.24996 11.4561ZM13.75 15.6699H2.74996V14.8356C2.93329 14.2288 5.77496 13.1416 8.24996 13.1416C10.725 13.1416 13.5666 14.2288 13.75 14.8272V15.6699Z" fill="#515151"/>
</g>
<defs>
<clipPath id="clip0_19_21447">
<rect width="22" height="20.2267" fill="white" transform="translate(0 0.5)"/>
</clipPath>
</defs>
</svg>
