<svg width="22" height="21" viewBox="0 0 22 21" fill="none" xmlns="http://www.w3.org/2000/svg">
<g clip-path="url(#clip0_19_21474)">
<path d="M6.27358 19.5814C4.19108 19.5814 2.48486 18.0677 2.48486 16.2039V14.4189C2.48486 14.0602 2.78236 13.7627 3.14111 13.7627C3.49986 13.7627 3.79736 14.0602 3.79736 14.4189C3.79736 15.5127 4.85608 16.3352 6.27358 16.3352C7.69108 16.3352 8.74985 15.5127 8.74985 14.4189C8.74985 14.0602 9.04733 13.7627 9.40608 13.7627C9.76483 13.7627 10.0623 14.0602 10.0623 14.4189V16.2039C10.0623 18.0677 8.36483 19.5814 6.27358 19.5814ZM4.02482 17.0614C4.40982 17.7789 5.27608 18.2689 6.27358 18.2689C7.27108 18.2689 8.13734 17.7702 8.52234 17.0614C7.90109 17.4377 7.13108 17.6564 6.27358 17.6564C5.41608 17.6564 4.64607 17.4377 4.02482 17.0614Z" fill="#515151"/>
<path d="M6.27358 15.2505C4.83858 15.2505 3.55235 14.5943 2.9136 13.553C2.6336 13.098 2.48486 12.5643 2.48486 12.0218C2.48486 11.103 2.88735 10.2455 3.62235 9.60675C5.03985 8.36428 7.48109 8.36432 8.90733 9.59809C9.64233 10.2456 10.0536 11.103 10.0536 12.0218C10.0536 12.5643 9.90483 13.098 9.62483 13.553C8.99483 14.5943 7.70858 15.2505 6.27358 15.2505ZM6.27358 9.95684C5.59108 9.95684 4.9611 10.1843 4.4886 10.5955C4.04235 10.9805 3.79736 11.488 3.79736 12.0218C3.79736 12.328 3.87608 12.6081 4.03358 12.8706C4.43608 13.5356 5.29358 13.9468 6.27358 13.9468C7.25358 13.9468 8.11107 13.5356 8.50482 12.8793C8.66232 12.6256 8.74109 12.3368 8.74109 12.0306C8.74109 11.4968 8.4961 10.9893 8.04985 10.5955C7.5861 10.1843 6.95608 9.95684 6.27358 9.95684Z" fill="#515151"/>
<path d="M6.27358 17.657C4.11233 17.657 2.48486 16.2658 2.48486 14.4283V12.022C2.48486 10.1583 4.18233 8.64453 6.27358 8.64453C7.26233 8.64453 8.20735 8.98578 8.91608 9.59828C9.65108 10.2458 10.0623 11.1033 10.0623 12.022V14.4283C10.0623 16.2658 8.43483 17.657 6.27358 17.657ZM6.27358 9.95703C4.90858 9.95703 3.79736 10.8845 3.79736 12.022V14.4283C3.79736 15.522 4.85608 16.3445 6.27358 16.3445C7.69108 16.3445 8.74985 15.522 8.74985 14.4283V12.022C8.74985 11.4883 8.50486 10.9808 8.05861 10.587C7.58611 10.1845 6.95608 9.95703 6.27358 9.95703Z" fill="#515151"/>
<path d="M16.6599 12.6256C15.3387 12.6256 14.2187 11.6456 14.1137 10.3856C14.0437 9.65934 14.3062 8.95059 14.8312 8.43434C15.2687 7.97933 15.8899 7.72559 16.5462 7.72559H18.3749C19.2412 7.75184 19.9062 8.43434 19.9062 9.27434V11.0768C19.9062 11.9168 19.2412 12.5993 18.4012 12.6256H16.6599ZM18.3487 9.03809H16.5549C16.2487 9.03809 15.9687 9.15184 15.7674 9.36184C15.5137 9.60684 15.3912 9.93934 15.4262 10.2718C15.4699 10.8493 16.0299 11.3131 16.6599 11.3131H18.3749C18.4887 11.3131 18.5937 11.2081 18.5937 11.0768V9.27434C18.5937 9.14309 18.4887 9.04684 18.3487 9.03809Z" fill="#515151"/>
<path d="M14.0002 18.2695H11.8127C11.4539 18.2695 11.1564 17.972 11.1564 17.6133C11.1564 17.2545 11.4539 16.957 11.8127 16.957H14.0002C16.2577 16.957 17.7189 15.4958 17.7189 13.2383V12.6258H16.6602C15.3389 12.6258 14.2189 11.6458 14.1139 10.3858C14.0439 9.65953 14.3065 8.95078 14.8315 8.43453C15.269 7.97954 15.8902 7.72579 16.5464 7.72579H17.7102V7.11328C17.7102 5.06578 16.5115 3.65701 14.569 3.42951C14.359 3.39451 14.1752 3.39453 13.9914 3.39453H6.11646C5.90646 3.39453 5.7052 3.41202 5.50395 3.43827C3.57895 3.68327 2.39771 5.08328 2.39771 7.11328V8.86328C2.39771 9.22203 2.10021 9.51953 1.74146 9.51953C1.38271 9.51953 1.08521 9.22203 1.08521 8.86328V7.11328C1.08521 4.41828 2.74774 2.46704 5.32899 2.14329C5.56524 2.10829 5.83646 2.08203 6.11646 2.08203H13.9914C14.2014 2.08203 14.4727 2.09078 14.7527 2.13453C17.3339 2.43203 19.0227 4.39203 19.0227 7.11328V8.38204C19.0227 8.74078 18.7252 9.03828 18.3664 9.03828H16.5464C16.2402 9.03828 15.9603 9.15203 15.759 9.36203C15.5053 9.60703 15.3827 9.93953 15.4177 10.272C15.4614 10.8495 16.0215 11.3133 16.6515 11.3133H18.3752C18.7339 11.3133 19.0314 11.6108 19.0314 11.9695V13.2383C19.0314 16.2483 17.0102 18.2695 14.0002 18.2695Z" fill="#515151"/>
</g>
<defs>
<clipPath id="clip0_19_21474">
<rect width="22" height="20.2267" fill="white" transform="translate(0 0.0244141)"/>
</clipPath>
</defs>
</svg>
