<svg width="22" height="21" viewBox="0 0 22 21" fill="none" xmlns="http://www.w3.org/2000/svg">
<g clip-path="url(#clip0_19_21484)">
<path d="M17.8109 11.3885C17.8476 11.1188 17.8751 10.8491 17.8751 10.5626C17.8751 10.276 17.8476 10.0063 17.8109 9.73663L19.7451 8.34605C19.9192 8.21963 19.9651 7.99208 19.8551 7.80667L18.0217 4.89065C17.9392 4.75581 17.7834 4.67996 17.6184 4.67996C17.5634 4.67996 17.5084 4.68839 17.4626 4.70524L15.1801 5.54802C14.7034 5.21091 14.1901 4.93279 13.6309 4.7221L13.2826 2.48873C13.2551 2.28647 13.0626 2.13477 12.8334 2.13477H9.16673C8.93757 2.13477 8.74507 2.28647 8.71757 2.48873L8.36923 4.7221C7.81007 4.93279 7.29673 5.21934 6.82007 5.54802L4.53757 4.70524C4.48257 4.68839 4.42757 4.67996 4.37257 4.67996C4.21673 4.67996 4.0609 4.75581 3.9784 4.89065L2.14507 7.80667C2.0259 7.99208 2.0809 8.21963 2.25507 8.34605L4.18923 9.73663C4.15257 10.0063 4.12507 10.2844 4.12507 10.5626C4.12507 10.8407 4.15257 11.1188 4.18923 11.3885L2.25507 12.7791C2.0809 12.9055 2.03507 13.133 2.14507 13.3184L3.9784 16.2345C4.0609 16.3693 4.21673 16.4452 4.38173 16.4452C4.43673 16.4452 4.49173 16.4367 4.53757 16.4199L6.82007 15.5771C7.29673 15.9142 7.81007 16.1923 8.36923 16.403L8.71757 18.6364C8.74507 18.8386 8.93757 18.9903 9.16673 18.9903H12.8334C13.0626 18.9903 13.2551 18.8386 13.2826 18.6364L13.6309 16.403C14.1901 16.1923 14.7034 15.9058 15.1801 15.5771L17.4626 16.4199C17.5176 16.4367 17.5726 16.4452 17.6276 16.4452C17.7834 16.4452 17.9392 16.3693 18.0217 16.2345L19.8551 13.3184C19.9651 13.133 19.9192 12.9055 19.7451 12.7791L17.8109 11.3885ZM15.9959 9.94733C16.0326 10.2086 16.0417 10.3856 16.0417 10.5626C16.0417 10.7395 16.0234 10.9249 15.9959 11.1778L15.8676 12.1301L16.6834 12.7201L17.6734 13.428L17.0317 14.4478L15.8676 14.0179L14.9142 13.664L14.0892 14.2371C13.6951 14.5068 13.3192 14.709 12.9434 14.8523L11.9717 15.2147L11.8251 16.167L11.6417 17.3048H10.3584L10.1842 16.167L10.0376 15.2147L9.0659 14.8523C8.67173 14.7006 8.30507 14.5068 7.9384 14.2539L7.10423 13.664L6.13257 14.0264L4.9684 14.4562L4.32673 13.4364L5.31673 12.7285L6.13257 12.1386L6.00423 11.1862C5.97673 10.9249 5.9584 10.7311 5.9584 10.5626C5.9584 10.394 5.97673 10.2002 6.00423 9.94733L6.13257 8.99499L5.31673 8.40504L4.32673 7.69711L4.9684 6.67734L6.13257 7.10716L7.0859 7.46113L7.9109 6.88804C8.30507 6.61835 8.6809 6.41608 9.05673 6.27281L10.0284 5.91041L10.1751 4.95807L10.3584 3.82032H11.6326L11.8067 4.95807L11.9534 5.91041L12.9251 6.27281C13.3192 6.42451 13.6859 6.61835 14.0526 6.87118L14.8867 7.46113L15.8584 7.09873L17.0226 6.66892L17.6642 7.68868L16.6834 8.40504L15.8676 8.99499L15.9959 9.94733ZM11.0001 7.19144C8.97423 7.19144 7.3334 8.70001 7.3334 10.5626C7.3334 12.4251 8.97423 13.9337 11.0001 13.9337C13.0259 13.9337 14.6667 12.4251 14.6667 10.5626C14.6667 8.70001 13.0259 7.19144 11.0001 7.19144ZM11.0001 12.2481C9.99173 12.2481 9.16673 11.4896 9.16673 10.5626C9.16673 9.6355 9.99173 8.877 11.0001 8.877C12.0084 8.877 12.8334 9.6355 12.8334 10.5626C12.8334 11.4896 12.0084 12.2481 11.0001 12.2481Z" fill="#515151"/>
</g>
<defs>
<clipPath id="clip0_19_21484">
<rect width="22" height="20.2267" fill="white" transform="translate(0 0.449219)"/>
</clipPath>
</defs>
</svg>
