<svg width="22" height="21" viewBox="0 0 22 21" fill="none" xmlns="http://www.w3.org/2000/svg">
<g clip-path="url(#clip0_19_21458)">
<path d="M17.4167 12.1417V5.39942C17.4167 4.47237 16.5917 3.71387 15.5834 3.71387H2.75002C1.74169 3.71387 0.916687 4.47237 0.916687 5.39942V12.1417C0.916687 13.0687 1.74169 13.8272 2.75002 13.8272H15.5834C16.5917 13.8272 17.4167 13.0687 17.4167 12.1417ZM15.5834 12.1417H2.75002V5.39942H15.5834V12.1417ZM9.16669 6.2422C7.64502 6.2422 6.41669 7.37153 6.41669 8.77054C6.41669 10.1696 7.64502 11.2989 9.16669 11.2989C10.6884 11.2989 11.9167 10.1696 11.9167 8.77054C11.9167 7.37153 10.6884 6.2422 9.16669 6.2422ZM21.0834 6.2422V15.5128C21.0834 16.4398 20.2584 17.1983 19.25 17.1983H3.66669C3.66669 16.3555 3.66669 16.4398 3.66669 15.5128H19.25V6.2422C20.2584 6.2422 20.1667 6.2422 21.0834 6.2422Z" fill="#515151"/>
</g>
<defs>
<clipPath id="clip0_19_21458">
<rect width="22" height="20.2267" fill="white" transform="translate(0 0.341797)"/>
</clipPath>
</defs>
</svg>
