<svg width="22" height="21" viewBox="0 0 22 21" fill="none" xmlns="http://www.w3.org/2000/svg">
<g clip-path="url(#clip0_19_21469)">
<path d="M17.4165 3.21583H16.4998V1.53027H14.6665V3.21583H7.33318V1.53027H5.49985V3.21583H4.58318C3.57485 3.21583 2.74985 3.97433 2.74985 4.90139V16.7003C2.74985 17.6273 3.57485 18.3859 4.58318 18.3859H17.4165C18.4248 18.3859 19.2498 17.6273 19.2498 16.7003V4.90139C19.2498 3.97433 18.4248 3.21583 17.4165 3.21583ZM17.4165 16.7003H4.58318V8.2725H17.4165V16.7003ZM4.58318 6.58695V4.90139H17.4165V6.58695H4.58318ZM9.67985 15.4024L15.1157 10.4047L14.144 9.51139L9.67985 13.6157L7.74568 11.8375L6.77401 12.7308L9.67985 15.4024Z" fill="#515151"/>
</g>
<defs>
<clipPath id="clip0_19_21469">
<rect width="22" height="20.2267" fill="white" transform="translate(0 0.688477)"/>
</clipPath>
</defs>
</svg>
